<?xml version="1.0" standalone="no"?><!DOCTYPE svg PUBLIC "-//W3C//DTD SVG 1.1//EN" "http://www.w3.org/Graphics/SVG/1.1/DTD/svg11.dtd"><svg class="icon" height="512" viewBox="0 0 1024 1024" version="1.1" xmlns="http://www.w3.org/2000/svg"><path d="M926.208 896.512H95.744c-17.408 0-31.744-14.336-31.744-31.744 0-17.408 14.336-31.744 31.744-31.744h829.952c17.408 0 31.744 14.336 31.744 31.744 0.512 17.408-13.824 31.744-31.232 31.744zM319.488 641.024h127.488v191.488H319.488z" fill="" /><path d="M606.72 130.048H159.744c-17.408 0-31.744 14.336-31.744 31.744v670.72h127.488v-223.744c0-17.408 14.336-31.744 31.744-31.744h191.488c17.408 0 31.744 14.336 31.744 31.744v223.744h127.488v-670.72c0.512-17.408-13.824-31.744-31.232-31.744zM478.72 481.28H287.232c-17.408 0-31.744-14.336-31.744-31.744s14.336-31.744 31.744-31.744h191.488c17.408 0 31.744 14.336 31.744 31.744S496.64 481.28 478.72 481.28z m0-159.744H287.232c-17.408 0-31.744-14.336-31.744-31.744s14.336-31.744 31.744-31.744h191.488c17.408 0 31.744 14.336 31.744 31.744s-13.824 31.744-31.744 31.744zM862.208 257.536h-159.744v574.976h191.488v-542.72c0-17.92-14.336-32.256-31.744-32.256z m-64 383.488c-17.408 0-31.744-14.336-31.744-31.744s14.336-31.744 31.744-31.744 31.744 14.336 31.744 31.744-14.336 31.744-31.744 31.744z m0-159.744c-17.408 0-31.744-14.336-31.744-31.744s14.336-31.744 31.744-31.744 31.744 14.336 31.744 31.744-14.336 31.744-31.744 31.744z" fill="" /></svg>